<svg width="143" height="142" viewBox="0 0 143 142" fill="none" xmlns="http://www.w3.org/2000/svg">
<path d="M141.077 11.8936C140.408 13.2521 140.565 14.7559 140.346 16.1907C136.579 41.2543 125.189 62.3767 106.909 79.903C105.52 81.2325 105.081 82.5692 104.971 84.36C103.819 102.493 96.8607 118.116 84.249 131.265C83.4372 132.112 82.5596 132.805 81.3237 132.798C79.7879 132.798 78.6507 131.628 78.3983 129.928C77.3818 122.809 76.358 115.689 75.3268 108.57C75.3268 108.501 75.228 108.443 75.0745 108.25C74.2371 108.977 73.407 109.732 72.566 110.466C70.8255 111.984 69.3994 111.981 67.7831 110.379C55.4919 98.1837 43.2093 85.9824 30.9351 73.7752C29.3738 72.2169 29.3555 70.7857 30.8145 69.1293C31.5458 68.2793 32.3137 67.4439 33.2388 66.405C30.9607 66.0672 28.8801 65.7439 26.7995 65.4497C21.5266 64.7232 16.2501 63.9749 10.9772 63.2266C9.75589 63.0523 8.82343 62.413 8.4468 61.2288C8.07016 60.0447 8.44681 58.9441 9.37194 58.0287C19.5254 48.0375 32.3678 41.1719 46.3552 38.2575C50.2728 37.4022 54.2627 36.9158 58.2722 36.8046C58.8055 36.8041 59.3322 36.6878 59.8154 36.4638C60.2986 36.2398 60.7267 35.9135 61.0695 35.5078C76.5116 19.231 95.2445 8.59895 117.104 3.37556C123.669 1.82825 130.391 1.03125 137.139 1C138.967 1 140.265 1.55576 141.055 3.17944L141.077 11.8936ZM132.352 6.91715C130.761 7.05518 129.167 7.13873 127.598 7.33125C114.654 8.92588 102.572 13.114 91.2149 19.4053C80.7427 25.1452 71.3492 32.6416 63.45 41.563C54.8862 51.2651 46.1614 60.8148 37.4879 70.4188C36.848 71.1271 36.8808 71.4795 37.5537 72.1188C39.7257 74.1856 41.8246 76.3287 43.9528 78.4428C52.4655 86.899 60.972 95.3589 69.4725 103.822C70.1563 104.502 70.5439 104.647 71.3008 103.902C72.6757 102.522 74.1566 101.24 75.623 99.9466C84.472 92.1188 93.3833 84.36 102.174 76.4631C110.489 68.9913 117.225 60.2372 122.651 50.4951C129.727 37.7526 134.305 24.2365 135.149 9.60877C135.256 6.81909 135.237 6.81908 132.352 6.91715ZM17.7383 58.2902C24.3203 59.2346 30.5878 60.1064 36.8443 61.0472C37.7329 61.1816 38.2557 60.8947 38.8225 60.2626C42.5596 56.0527 46.3369 51.879 50.0996 47.6909C51.4891 46.1435 52.8714 44.5961 54.4364 42.8452C40.5887 44.4617 28.5291 49.5071 17.7383 58.2902ZM83.4116 123.51C92.2351 112.794 97.3544 100.829 98.9414 87.2586C98.781 87.3179 98.6277 87.3947 98.4843 87.4875C92.7068 92.6092 86.9403 97.7454 81.1372 102.842C80.5375 103.365 80.5521 103.895 80.6435 104.527L83.4116 123.51Z" fill="white" fill-opacity="0.75"/>
<path d="M141.577 12.0094L141.525 12.1145C141.23 12.7143 141.11 13.3601 141.04 14.0628C141.016 14.3023 140.998 14.5609 140.979 14.8277C140.946 15.3016 140.911 15.8014 140.84 16.2663M141.577 12.0094L140.346 16.1907M141.577 12.0094L141.577 11.8923L141.555 3.17818L141.555 3.06368L141.505 2.96072C141.069 2.06595 140.477 1.43587 139.718 1.03806C138.97 0.645274 138.099 0.5 137.139 0.499995L137.136 0.500005C130.351 0.531429 123.591 1.3329 116.989 2.88889L116.988 2.88925C95.0366 8.13457 76.2172 18.8148 60.7068 35.1637L60.6969 35.1741L60.6877 35.1851C60.3919 35.535 60.0225 35.8167 59.6051 36.0102C59.1877 36.2037 58.7326 36.3042 58.2718 36.3046V36.3044L58.2583 36.3048C54.2184 36.4168 50.1981 36.9069 46.2507 37.7686M141.577 12.0094L58.2722 36.8046M140.84 16.2663L140.346 16.1907M140.84 16.2663C140.84 16.2658 140.84 16.2654 140.84 16.265L140.346 16.1907M140.84 16.2663C137.056 41.4443 125.61 62.6655 107.255 80.2639L107.255 80.2643C105.978 81.4858 105.574 82.6914 105.47 84.3905L105.47 84.3917C104.311 102.644 97.3019 118.378 84.6098 131.611C83.778 132.479 82.7742 133.306 81.3222 133.298M140.346 16.1907C136.579 41.2543 125.189 62.3767 106.909 79.903C105.52 81.2325 105.081 82.5692 104.971 84.36C103.819 102.493 96.8607 118.116 84.249 131.265C83.4372 132.112 82.5596 132.805 81.3237 132.798M81.3222 133.298C81.3227 133.298 81.3232 133.298 81.3237 133.298V132.798M81.3222 133.298C79.4797 133.297 78.1829 131.882 77.9038 130.002L77.9034 129.999C76.9073 123.023 75.9044 116.048 74.8943 109.072C74.6222 109.312 74.3543 109.551 74.0852 109.79C73.6965 110.136 73.3052 110.485 72.8947 110.843L72.566 110.466M81.3222 133.298C81.3217 133.298 81.3212 133.298 81.3207 133.298L81.3237 132.798M81.3237 132.798L74.6976 108.579C74.3803 108.858 74.0637 109.14 73.7468 109.422C73.3544 109.771 72.9614 110.121 72.566 110.466M72.566 110.466C70.8255 111.984 69.3994 111.981 67.7831 110.379C55.4919 98.1837 43.2093 85.9824 30.9351 73.7752C29.3738 72.2169 29.3555 70.7857 30.8145 69.1293M72.566 110.466L72.8947 110.843C71.982 111.639 71.0739 112.106 70.1206 112.092C69.1625 112.078 68.2852 111.58 67.4312 110.734L67.431 110.734C55.1396 98.5385 42.8568 86.3371 30.5826 74.1297L30.5819 74.1291C29.7533 73.3021 29.2638 72.4391 29.2423 71.5004C29.2209 70.5651 29.6673 69.676 30.4372 68.8012M30.4372 68.8012C30.4366 68.8019 30.436 68.8025 30.4355 68.8032L30.8145 69.1293M30.4372 68.8012C30.4379 68.8004 30.4386 68.7996 30.4393 68.7988L30.8145 69.1293M30.4372 68.8012C30.9226 68.2371 31.4266 67.6764 31.9775 67.0636C32.0663 66.9647 32.1563 66.8646 32.2477 66.7628M30.8145 69.1293C31.297 68.5685 31.7955 68.014 32.3445 67.4032C32.5051 67.2245 32.67 67.0411 32.8401 66.8512C32.6412 66.8216 32.4437 66.7921 32.2477 66.7628M32.2477 66.7628C32.3781 66.6176 32.5111 66.4693 32.6473 66.317C32.0719 66.2311 31.5083 66.1462 30.9533 66.0626C29.5314 65.8485 28.1655 65.6428 26.7995 65.4497M32.2477 66.7628C31.7833 66.6933 31.3267 66.6245 30.8759 66.5566C29.4561 66.3428 28.0946 66.1378 26.7312 65.945M26.7312 65.945L26.7995 65.4497M26.7312 65.945C26.7306 65.9449 26.73 65.9448 26.7295 65.9447L26.7995 65.4497M26.7312 65.945C21.4572 65.2184 16.1797 64.4699 10.907 63.7217L10.9065 63.7216C9.537 63.5261 8.41689 62.7844 7.97032 61.3804C7.52483 59.9798 7.99203 58.6907 9.02026 57.6733L9.02124 57.6723C19.2428 47.6141 32.1706 40.7028 46.2507 37.7686M26.7995 65.4497C21.5266 64.7232 16.2501 63.9749 10.9772 63.2266C9.75589 63.0523 8.82343 62.413 8.4468 61.2288C8.07016 60.0447 8.44681 58.9441 9.37194 58.0287C19.5254 48.0375 32.3678 41.1719 46.3552 38.2575M46.2507 37.7686C46.25 37.7687 46.2493 37.7689 46.2486 37.769L46.3552 38.2575M46.2507 37.7686C46.2516 37.7684 46.2524 37.7682 46.2532 37.768L46.3552 38.2575M46.3552 38.2575C50.2728 37.4022 54.2627 36.9158 58.2722 36.8046M58.2722 36.8046C58.8055 36.8041 59.3322 36.6878 59.8154 36.4638C60.2986 36.2398 60.7267 35.9135 61.0695 35.5078C76.5116 19.231 95.2445 8.59895 117.104 3.37556L58.2722 36.8046ZM91.4572 19.8427L91.4552 19.8438C81.0336 25.5559 71.6857 33.016 63.8249 41.8939C63.8247 41.8941 63.8245 41.8943 63.8244 41.8945L63.45 41.563C57.0407 48.8243 50.5412 56.0001 44.0405 63.1773C41.8553 65.5899 39.67 68.0026 37.4879 70.4188L91.4572 19.8427ZM91.4572 19.8427C102.764 13.5793 114.785 9.41357 127.659 7.82753L91.4572 19.8427ZM78.3983 129.928C77.387 122.845 76.3685 115.763 75.3427 108.68L78.3983 129.928ZM70.4098 103.899C70.3307 103.891 70.1783 103.819 69.8253 103.468L127.66 7.8275C128.698 7.70001 129.739 7.62157 130.796 7.54192C131.321 7.50242 131.849 7.46263 132.382 7.41642C133.108 7.39174 133.614 7.37551 133.985 7.4027C134.366 7.43071 134.483 7.49967 134.527 7.54148C134.566 7.57847 134.635 7.67913 134.664 8.03818C134.693 8.39136 134.677 8.87801 134.65 9.58498C133.81 24.1215 129.26 37.5634 122.214 50.2524C116.811 59.9513 110.109 68.6603 101.84 76.0912C96.0066 81.3313 90.122 86.509 84.2355 91.6885C81.2526 94.3132 78.2692 96.9383 75.2917 99.5721C75.1301 99.7146 74.968 99.8572 74.8058 100C73.5022 101.147 72.1832 102.308 70.9484 103.548C70.5897 103.9 70.4491 103.903 70.4098 103.899ZM36.9191 60.5528L36.9186 60.5528C32.433 59.8783 27.9407 59.2391 23.3334 58.5835C21.8851 58.3774 20.4254 58.1698 18.951 57.9589C29.0906 49.9534 40.3514 45.2223 53.1741 43.5072C51.9633 44.8617 50.8479 46.1092 49.7277 47.3567C48.6927 48.5087 47.6563 49.6599 46.6198 50.8114C43.8898 53.8439 41.1588 56.8776 38.4493 59.9298C38.1892 60.2198 37.9745 60.3896 37.7572 60.4827C37.5481 60.5723 37.2929 60.6094 36.9191 60.5528ZM81.4659 103.218L81.4671 103.217C85.8139 99.4 90.1405 95.56 94.4654 91.7214C95.7456 90.5852 97.0257 89.449 98.3061 88.3137C96.6343 100.961 91.8298 112.19 83.7418 122.309L81.1384 104.456C81.0934 104.145 81.0805 103.932 81.1199 103.749C81.1547 103.588 81.2384 103.417 81.4659 103.218Z" stroke="white" stroke-opacity="0.75"/>
<path d="M2.90338 140.183C0.786184 138.523 0.621651 138.004 1.5029 135.228C4.75731 124.934 8.15432 114.694 12.9591 104.971C15.3689 100.092 18.7476 96.3763 24.1009 94.6654C27.9253 93.436 32.0536 93.5112 35.83 94.8792C39.6064 96.2472 42.8144 98.8294 44.9443 102.216C47.0742 105.602 48.0039 109.598 47.5858 113.57C47.1677 117.541 45.4257 121.26 42.6365 124.135C40.2779 126.547 37.2393 127.953 34.2262 129.348C24.8579 133.706 15.0654 136.892 5.20342 139.907C5.03156 139.958 4.83774 139.954 4.8158 140.183H2.90338ZM8.31889 132.889C14.1329 130.982 19.6544 129.104 25.1028 126.928C29.063 125.341 33.0597 123.812 36.6652 121.48C40.8155 118.81 42.7206 113.558 41.4188 108.592C40.1756 103.797 35.6998 99.9833 30.8694 99.6672C25.3442 99.304 21.278 101.556 18.722 106.463C14.3779 114.847 11.438 123.761 8.31889 132.889Z" fill="white" fill-opacity="0.75"/>
<path d="M2.73074 140.683L2.59487 140.576C1.55601 139.762 0.844865 139.125 0.597985 138.261C0.35422 137.409 0.594097 136.438 1.0262 135.078C1.02625 135.077 1.0263 135.077 1.02635 135.077L1.5029 135.228L2.73074 140.683ZM2.73074 140.683H2.90338M2.73074 140.683H2.90338M2.90338 140.683H4.8158H5.27015L5.29732 140.4C5.31242 140.396 5.32858 140.391 5.34529 140.386L5.3496 140.385M2.90338 140.683L5.3496 140.385M42.9954 124.483L42.994 124.485C40.5729 126.961 37.4661 128.399 34.4814 129.78L34.4371 129.801L42.9954 124.483ZM42.9954 124.483C45.8622 121.528 47.6532 117.705 48.083 113.622C48.5129 109.539 47.557 105.431 45.3675 101.95C43.1781 98.4686 39.8809 95.8148 36.0003 94.4091C32.1199 93.0034 27.878 92.9261 23.9483 94.1893C18.4293 95.9532 14.961 99.7889 12.5109 104.749L42.9954 124.483ZM5.3496 140.385C15.2139 137.37 25.0345 134.176 34.4362 129.801L5.3496 140.385ZM9.11637 132.101C9.20256 131.848 9.28865 131.596 9.37466 131.343C12.2857 122.806 15.1123 114.517 19.1657 106.694C20.4071 104.311 21.9993 102.601 23.9259 101.525C25.853 100.45 28.1509 99.9896 30.8366 100.166L30.8367 100.166C35.4421 100.467 39.7432 104.122 40.9348 108.718L40.9352 108.719C42.1862 113.491 40.3496 118.515 36.3947 121.059L36.3936 121.06C33.0851 123.2 29.4393 124.657 25.7462 126.133C25.4702 126.243 25.1939 126.353 24.9174 126.464C19.7821 128.515 14.5788 130.301 9.11637 132.101Z" stroke="white" stroke-opacity="0.75"/>
<path d="M115.597 40.8297C115.599 43.6986 114.745 46.5037 113.143 48.8905C111.54 51.2772 109.261 53.1384 106.594 54.2388C103.927 55.3392 100.991 55.6293 98.1582 55.0725C95.3251 54.5157 92.7218 53.137 90.6773 51.1107C88.6328 49.0844 87.2391 46.5014 86.6722 43.6883C86.1053 40.8752 86.3907 37.9583 87.4924 35.3063C88.5941 32.6543 90.4626 30.3864 92.8617 28.7891C95.2608 27.1919 98.0827 26.3371 100.971 26.3328C104.84 26.3452 108.549 27.8755 111.288 30.5906C114.027 33.3056 115.576 36.9857 115.597 40.8297ZM109.725 40.8297C109.727 39.1155 109.218 37.4391 108.261 36.0122C107.305 34.5852 105.945 33.4718 104.352 32.8123C102.759 32.1528 101.005 31.977 99.312 32.3069C97.6186 32.6368 96.0616 33.4578 94.8376 34.6661C93.6136 35.8745 92.7774 37.4159 92.4346 39.096C92.0919 40.776 92.2579 42.5193 92.9117 44.1056C93.5656 45.692 94.678 47.0504 96.1084 48.0092C97.5388 48.968 99.2232 49.4844 100.949 49.493C102.098 49.5055 103.238 49.2912 104.303 48.8625C105.369 48.4338 106.337 47.7993 107.154 46.9958C107.97 46.1922 108.618 45.2357 109.059 44.1816C109.501 43.1274 109.727 41.9967 109.725 40.8551V40.8297Z" fill="white" fill-opacity="0.75"/>
<path d="M116.097 40.8293L116.097 40.8269C116.075 36.85 114.473 33.0434 111.64 30.2354C108.807 27.4276 104.973 25.8456 100.972 25.8328L100.97 25.8328C97.9838 25.8372 95.0657 26.7211 92.5846 28.3729C90.1034 30.0248 88.1705 32.3707 87.0307 35.1145C85.8908 37.8583 85.5955 40.8763 86.182 43.787C86.7686 46.6977 88.2106 49.3699 90.3253 51.4658C92.44 53.5617 95.1323 54.9874 98.0618 55.5631C100.991 56.1388 104.027 55.8389 106.785 54.701C109.543 53.5631 111.9 51.6382 113.558 49.1692C115.216 46.7001 116.1 43.7978 116.097 40.8293ZM109.225 40.8291V40.8297V40.8551V40.856C109.227 41.931 109.014 42.9957 108.598 43.9885C108.182 44.9812 107.572 45.8823 106.803 46.6394C106.034 47.3965 105.121 47.9946 104.117 48.3986C103.113 48.8027 102.038 49.0048 100.954 48.993L100.951 48.993C99.3238 48.9848 97.7354 48.4979 96.3868 47.5939C95.0382 46.6899 93.99 45.4097 93.374 43.9151C92.758 42.4206 92.6017 40.7785 92.9245 39.1959C93.2474 37.6134 94.0352 36.1609 95.1888 35.022C96.3426 33.8831 97.8106 33.1088 99.4076 32.7977C101.005 32.4865 102.659 32.6524 104.161 33.2743C105.663 33.8961 106.945 34.9459 107.846 36.2905C108.747 37.6351 109.227 39.2144 109.225 40.8291Z" stroke="white" stroke-opacity="0.75"/>
</svg>
