<svg width="89" height="100" viewBox="0 0 89 100" fill="none" xmlns="http://www.w3.org/2000/svg">
<path d="M52.5613 99.9704C51.9485 99.4982 51.1648 99.4956 50.4758 99.219C46.3627 97.5807 42.8782 95.0161 39.6934 92.0237C34.5179 87.1686 30.4153 81.5882 28.2877 74.7659C26.1602 67.9437 26.7493 61.3745 31.1438 55.4863C34.3443 51.1972 38.7414 48.9275 44.13 48.9093C52.2825 48.8858 59.3831 54.9097 60.8453 62.8772C61.1899 64.7452 61.182 66.6236 61.2109 68.5098C61.2688 72.5536 63.9591 76.1121 67.6751 77.1192C72.5403 78.4236 77.608 75.2538 78.5285 70.2473C79.0545 67.3958 78.7126 64.5339 78.2839 61.7085C77.232 54.6645 74.4653 48.3405 69.8158 42.9062C63.6146 35.6613 55.8039 31.4506 46.1471 30.8088C31.583 29.8409 18.5836 38.505 12.8321 51.0668C10.3737 56.3419 9.23769 62.1285 9.52111 67.9333C9.89981 75.499 12.3403 82.3682 17.0083 88.4104C17.7026 89.3105 18.3233 90.2366 18.0603 91.4289C17.7973 92.702 17.0425 93.5995 15.7276 93.9282C15.1394 94.101 14.5119 94.0894 13.9306 93.8952C13.3493 93.7009 12.8426 93.3335 12.4797 92.8429C8.58421 87.9917 5.81336 82.349 4.36398 76.3156C3.38478 72.3936 2.99398 68.3498 3.2042 64.3147C3.73017 54.9854 6.83867 46.6134 12.8111 39.3451C17.934 33.1072 24.3193 28.6121 32.0984 26.3006C45.5448 22.3143 57.9288 24.5683 68.8927 33.3107C77.6738 40.3156 82.6758 49.5797 84.4562 60.5788C84.9821 63.926 85.2451 67.2863 84.8428 70.6752C84.0196 77.5157 77.8395 83.1744 70.9045 83.6153C62.0656 84.1762 54.9098 76.9287 54.8992 68.5959C54.8992 66.081 54.8677 63.5921 53.7158 61.2571C51.2227 56.2141 45.3686 53.767 40.4166 55.8828C36.5166 57.5473 34.4916 60.7797 33.6763 64.7869C32.9373 68.4211 33.6369 71.9275 35.1306 75.2486C38.4784 82.6917 43.8091 88.4209 50.8414 92.5925C51.899 93.2511 53.102 93.645 54.347 93.7404C55.0064 93.7949 55.6301 94.0601 56.1247 94.4962C56.6192 94.9322 56.9579 95.5156 57.0899 96.1588C57.3818 97.6224 56.7901 98.8616 55.4699 99.5973C55.2806 99.7017 55.0149 99.7095 54.915 99.9547L52.5613 99.9704Z" fill="white" fill-opacity="0.75"/>
<path d="M33.2769 99.9699C31.0257 98.6446 29.574 96.5236 27.9645 94.5852C23.5306 89.2343 19.6989 83.4974 17.2584 76.9595C13.1927 66.0831 14.8126 56.018 22.1473 47.0304C26.9415 41.1552 33.2795 37.7349 40.9061 36.8974C55.4439 35.2956 68.8956 44.8806 72.246 59.1617C72.7801 61.3744 73.0554 63.6408 73.0665 65.9161C73.0665 67.9589 71.9488 69.2946 70.1448 69.3677C68.2144 69.4485 66.8338 68.1754 66.7864 66.1039C66.7391 63.9777 66.5471 61.8749 65.9107 59.8426C63.0599 50.7846 57.0954 44.972 47.5885 43.224C38.9573 41.6352 29.8791 45.8642 25.169 53.4195C20.4589 60.9749 20.3012 68.7259 23.9093 76.696C26.8837 83.2652 31.0757 89.0282 36.0592 94.2069C37.9291 96.1505 37.5057 99.182 34.9152 99.8916C34.8889 99.8916 34.8732 99.9386 34.8495 99.9621L33.2769 99.9699Z" fill="white" fill-opacity="0.75"/>
<path d="M85.0289 40.4534C83.6824 40.4743 82.8356 39.7568 82.165 38.7655C80.2166 35.9099 77.9464 33.2841 75.3984 30.9388C68.2715 24.3357 59.9296 20.091 50.2254 18.9718C31.8164 16.8508 17.2917 23.72 6.33052 38.3532C5.63624 39.282 4.99719 40.2343 3.73749 40.4247C2.37523 40.6334 1.25228 40.1795 0.521184 39.0237C0.174252 38.5232 -0.00775329 37.9283 0.000253265 37.3209C0.00825982 36.7135 0.205896 36.1235 0.565903 35.6322C2.64994 32.5109 5.07053 29.6241 7.78484 27.0228C13.9518 21.1268 21.0735 16.7725 29.3312 14.4428C46.3858 9.63461 61.9809 12.7288 76.0848 23.3C80.5397 26.6367 84.2373 30.7066 87.3931 35.2774C88.4714 36.8427 88.4214 38.3715 87.2643 39.5377C86.9812 39.8424 86.6346 40.0822 86.2485 40.2404C85.8624 40.3985 85.4462 40.4712 85.0289 40.4534Z" fill="white" fill-opacity="0.75"/>
<path d="M44.1459 0C58.0858 0.182622 70.3392 4.79166 80.906 13.8271C81.2294 14.101 81.545 14.388 81.8474 14.6854C83.1308 15.9586 83.2018 17.7822 82.0289 19.071C81.484 19.6712 80.7232 20.0349 79.9105 20.0837C79.0978 20.1325 78.2983 19.8625 77.6844 19.3319C76.2906 18.1996 74.9493 17.0073 73.495 15.9403C66.818 10.9937 58.9794 7.81861 50.7205 6.71528C41.2741 5.43953 32.1958 6.83268 23.5199 10.7747C18.8473 12.9232 14.5272 15.7568 10.7046 19.1805C9.43178 20.3076 7.82758 20.3728 6.56525 19.4232C6.00935 18.9853 5.61667 18.376 5.44945 17.6917C5.28224 17.0074 5.35006 16.2872 5.64217 15.6455C5.89599 15.1507 6.25487 14.7164 6.69411 14.3724C14.4943 7.46142 23.5252 2.96891 33.7816 0.991378C37.1965 0.333244 40.6671 0.00126704 44.1459 0Z" fill="white" fill-opacity="0.75"/>
<path d="M40.7405 65.2295C40.7063 62.978 41.2875 61.8588 42.7708 61.3162C44.8405 60.57 46.9785 62.0075 47.0101 64.2903C47.0995 70.5516 49.377 75.9547 53.3875 80.6715C56.0962 83.8544 59.3204 86.3641 63.5255 87.3398C64.2616 87.4948 65.0092 87.5899 65.7609 87.6242C67.5492 87.7416 68.8957 89.0643 68.88 90.7549C68.8772 91.1721 68.791 91.5846 68.6264 91.9685C68.4617 92.3524 68.2218 92.7 67.9207 92.9913C67.6195 93.2825 67.2631 93.5115 66.872 93.665C66.481 93.8185 66.0631 93.8935 65.6426 93.8855C63.2442 93.8481 60.8819 93.3 58.7156 92.2785C51.5203 88.9521 46.6182 83.4082 43.3651 76.3642C41.7215 72.8733 40.8277 69.0815 40.7405 65.2295Z" fill="white" fill-opacity="0.75"/>
</svg>
