<svg width="174" height="133" viewBox="0 0 174 133" fill="none" xmlns="http://www.w3.org/2000/svg">
<path d="M69.0874 105.944L84.4856 108.36C93.4959 109.748 102.515 111.136 111.516 112.599C114.13 112.959 116.506 114.299 118.154 116.344C119.802 118.388 120.597 120.981 120.377 123.589C120.156 126.198 118.936 128.623 116.968 130.366C115 132.11 112.432 133.039 109.795 132.962C95.3607 132.993 80.93 132.993 66.5023 132.962C58.4626 132.925 50.9035 130.875 43.7456 127.265C38.9395 124.84 34.0774 122.517 29.2807 120.087C24.3534 117.569 18.8788 116.289 13.3365 116.357C9.37965 116.394 5.40411 116.357 1.4659 116.385C0.495346 116.385 0.0660627 116.292 0.0660627 115.121C0.0660627 110.822 0.00540537 110.771 4.32624 110.836C9.7856 110.924 15.2636 110.447 20.695 111.414C24.6323 112.158 28.4455 113.443 32.0243 115.232C38.3796 118.305 44.5482 121.776 51.1088 124.433C55.7957 126.352 60.8112 127.36 65.8817 127.4C80.4307 127.478 94.9797 127.446 109.524 127.437C112.38 127.437 114.442 125.585 114.605 123.026C114.769 120.467 113.075 118.514 110.271 118.074C95.5816 115.751 80.888 113.451 66.1897 111.174C64.353 110.929 62.5972 110.27 61.057 109.248C53.7032 104.293 46.3073 99.4028 38.8695 94.5773C37.843 93.9109 37.661 93.4481 38.4589 92.4993C39.2569 91.5505 39.8588 89.6669 40.8293 89.4772C41.7999 89.2874 43.0597 90.6619 44.1656 91.3886C50.6002 95.6279 57.0254 99.8764 63.53 104.176C64.5892 102.713 65.6951 101.302 66.4323 99.6682C67.9815 96.248 66.9923 92.6659 63.8053 90.1205C58.6399 85.9969 53.5399 81.79 48.2531 77.8237C39.4902 71.2426 29.9713 70.2152 20.0837 74.9821C14.2184 77.8145 8.26445 80.0174 1.68988 80.3506C0.425359 80.4154 -0.0925855 80.1655 0.0660627 78.8049C0.215379 77.5599 -0.29789 76.0281 0.290042 75.1024C0.877973 74.1768 2.54378 74.7507 3.72897 74.6118C7.95161 74.1301 12.0434 72.8564 15.7862 70.8585C22.2068 67.4384 28.9447 65.7676 36.4058 66.8506C36.4058 62.4076 36.4058 58.0573 36.4058 53.656C36.4058 50.7264 37.2691 49.8795 40.2647 49.8795H133.121C136.088 49.8795 136.947 50.7357 136.947 53.6884V95.9379C136.947 98.8906 136.084 99.7469 133.116 99.7469C113.518 99.7469 93.908 99.7469 74.2854 99.7469C72.9229 99.7469 72.0224 99.8625 71.6817 101.436C71.3411 103.01 70.1466 104.31 69.0874 105.944ZM56.9554 77.5414C60.6883 80.5033 64.0526 83.2015 67.4449 85.8719C69.7786 87.6306 71.4457 90.119 72.1763 92.9343C72.419 93.8877 72.7643 94.1839 73.7675 94.1793C87.0286 94.1423 100.29 94.1423 113.551 94.1793C114.549 94.1793 114.853 93.9155 115.086 92.9112C116.71 86.0154 120.919 81.2994 127.563 78.6753C128.809 78.1847 130.69 78.5133 131.231 77.3285C131.772 76.1437 131.305 74.4915 131.389 73.0568C131.445 72.0757 131.151 71.7702 130.13 71.5203C122.132 69.5719 117.064 64.5782 115.105 56.6504C114.829 55.5211 114.423 55.3499 113.42 55.3545C95.5614 55.3761 77.7057 55.3761 59.8531 55.3545C58.9199 55.3545 58.5139 55.4933 58.276 56.567C56.9741 62.4678 53.6098 66.8738 48.2345 69.7848C47.9265 69.9514 47.4459 69.9699 47.4086 70.5021C50.4789 72.1173 52.9613 74.5424 55.9522 76.6575C55.9522 75.232 55.9989 74.0843 55.9522 72.955C55.9102 72.1914 56.1622 71.9646 56.9321 71.9831C58.9059 72.034 60.8843 71.9831 62.8628 71.9831C67.2909 71.9831 67.2582 71.9831 67.1649 76.3983C67.1649 77.3239 66.9176 77.5645 66.0031 77.546C63.1474 77.5044 60.2731 77.5414 56.9368 77.5414H56.9554ZM52.7559 55.3777C49.443 55.3777 46.144 55.3777 42.8544 55.3777C42.1638 55.3777 41.9632 55.5951 41.9725 56.2662C42.0005 59.5058 41.9725 62.7964 41.9725 66.0824C44.6478 65.5859 47.1086 64.2974 49.0311 62.3866C50.9535 60.4757 52.2472 58.0321 52.7419 55.3777H52.7559ZM120.606 55.3777C121.353 60.2834 125.869 65.0503 130.503 66.0222C131.277 66.1795 131.38 65.9481 131.375 65.2909C131.351 62.2981 131.351 59.3022 131.375 56.3033C131.375 55.6738 131.254 55.3777 130.526 55.3777C127.209 55.3962 123.91 55.3777 120.592 55.3777H120.606ZM131.366 83.4977C126.481 84.1827 121.637 88.6765 120.662 93.2907C120.503 94.0265 120.662 94.1793 121.376 94.1747C124.395 94.1515 127.442 94.1376 130.438 94.1747C131.249 94.1747 131.371 93.8738 131.371 93.1657C131.333 89.9538 131.352 86.7328 131.352 83.4977H131.366Z" fill="white" fill-opacity="0.75"/>
<path d="M161.986 77.5466C159.424 77.5466 156.853 77.5466 154.306 77.5466C151.907 77.5466 150.96 76.5794 150.895 74.182C150.339 54.124 137.521 37.6204 118.143 32.0667C114.679 31.0711 111.097 30.5357 107.49 30.4746C103.883 30.4098 100.272 30.5301 96.6696 30.4052C95.2184 30.3543 94.9058 30.868 95.0224 32.1314C95.0785 33.226 95.0785 34.3228 95.0224 35.4174C94.9758 38.2961 93.0767 39.4855 90.4683 38.1942C80.3926 33.2206 70.3262 28.2285 60.2692 23.2178C59.6486 22.9078 59.0326 22.5838 58.4027 22.2922C57.0682 21.6998 55.9063 20.9639 55.9343 19.2978C55.9623 17.7289 57.0728 17.044 58.328 16.4285C63.7361 13.7766 69.1254 11.0831 74.5195 8.40342C79.7082 5.83022 84.8969 3.25544 90.0857 0.679157C93.2026 -0.866615 94.9851 0.257988 95.0411 3.72903C95.0411 5.20538 94.3692 7.22785 95.3351 8.00999C96.3009 8.79213 98.2141 8.28306 99.7119 8.25529C108.288 8.09331 116.837 8.30158 125.072 10.9905C151 19.4506 166.71 36.9539 172.2 63.5004C172.883 67.0078 173.219 70.5729 173.203 74.145C173.203 76.459 172.195 77.4911 169.802 77.505C167.203 77.5559 164.604 77.5466 161.986 77.5466ZM89.4511 31.5206C89.4511 30.2941 89.4511 29.3731 89.4511 28.4521C89.4511 25.8604 90.3843 24.9348 93.0393 24.9302C97.7055 24.9302 102.372 24.7867 107 24.9626C125.838 25.6707 140.13 34.1262 149.835 50.1115C153.545 56.2707 155.739 63.2108 156.237 70.3685C156.335 71.5903 156.643 72.1364 158.057 72.0623C160.857 71.9281 163.656 72.0068 166.456 72.0346C167.263 72.0346 167.707 71.9791 167.59 70.9424C167.362 68.2417 166.998 65.554 166.498 62.8896C160.19 33.6263 135.506 13.8599 105.283 13.8321C101.084 13.8321 96.8842 13.8321 92.7174 13.8321C90.5383 13.8321 89.5164 12.8001 89.4511 10.6619C89.4511 9.59283 89.4511 8.52838 89.4511 7.2464L64.9866 19.3812L89.4511 31.5206Z" fill="white" fill-opacity="0.75"/>
<path d="M72.6949 74.7692C72.6949 72.0296 73.514 69.3515 75.0485 67.0736C76.5831 64.7956 78.7643 63.0203 81.3162 61.9718C83.8681 60.9234 86.6761 60.6491 89.3852 61.1836C92.0943 61.7181 94.5827 63.0373 96.5359 64.9745C98.489 66.9117 99.8191 69.3799 100.358 72.0669C100.897 74.7538 100.62 77.539 99.5632 80.07C98.5062 82.6011 96.7162 84.7645 94.4195 86.2866C92.1229 87.8086 89.4228 88.621 86.6606 88.621C82.9593 88.6124 79.4121 87.1503 76.7949 84.5544C74.1777 81.9586 72.7035 78.4403 72.6949 74.7692ZM95.0316 74.8432C95.0464 73.1963 94.5673 71.5822 93.6552 70.206C92.7431 68.8297 91.4391 67.7534 89.9089 67.1138C88.3787 66.4743 86.6914 66.3002 85.0613 66.6139C83.4312 66.9275 81.9318 67.7146 80.7537 68.8753C79.5756 70.036 78.7719 71.5178 78.4448 73.1325C78.1176 74.7472 78.2817 76.4218 78.9163 77.9438C79.5508 79.4658 80.6272 80.7663 82.0086 81.6803C83.39 82.5942 85.0141 83.0802 86.6746 83.0766C88.878 83.0658 90.9889 82.1967 92.5522 80.6565C94.1155 79.1164 95.006 77.0286 95.0316 74.8432Z" fill="white" fill-opacity="0.75"/>
<path d="M111.628 77.5418H110.406C105.786 77.5418 105.805 77.5418 106.206 72.8674C106.262 72.2103 106.421 71.9835 107.102 71.9881C110.244 72.022 113.383 72.022 116.518 71.9881C117.2 71.9881 117.494 72.1871 117.4 72.8674C117.393 72.9243 117.393 72.9818 117.4 73.0387C117.624 77.5418 117.624 77.5418 113.037 77.5418H111.628Z" fill="white" fill-opacity="0.75"/>
</svg>
