<svg width="122" height="140" viewBox="0 0 122 140" fill="none" xmlns="http://www.w3.org/2000/svg">
<path d="M68.1236 59.1251V62.3639H72.4761V66.2945H67.8902C67.4312 68.9935 66.3088 70.9589 64.5229 72.1904C62.737 73.422 60.0437 74.0326 56.443 74.0221V76.2783C56.443 77.6107 56.72 78.6641 57.2779 79.4227C57.8358 80.1814 58.7855 80.5705 60.1308 80.5705C61.4168 80.5705 62.3427 80.2089 62.9006 79.4857C63.4585 78.7624 63.7552 77.7051 63.7552 76.3137H69.3305C69.2724 79.1778 68.4573 81.3711 66.8851 82.8935C65.3129 84.416 63.0707 85.1746 60.1585 85.1694C57.1328 85.1694 54.818 84.3609 53.2142 82.7441C51.6103 81.1274 50.8098 78.769 50.8124 75.669V70.005C53.8724 70.005 56.1304 69.9277 57.5865 69.7731C59.0466 69.6159 60.1308 69.2818 60.847 68.7708C61.6201 68.1576 62.126 67.2723 62.2596 66.2985H49.4433V62.3678H62.4732V59.129H49.4433V54.9547H72.4761V59.129L68.1236 59.1251Z" fill="white" fill-opacity="0.75"/>
<path d="M62.0982 59.504H49.4433H49.0683V59.129V54.9547V54.5797H49.4433H72.4761H72.8511V54.9547V59.129V59.5044L72.4758 59.504L68.4986 59.5004V61.9889H72.4761H72.8511V62.3639V66.2945V66.6695H72.4761H68.2033C67.6994 69.2842 66.5538 71.2454 64.7358 72.4992C62.9231 73.7492 60.2662 74.3641 56.818 74.3959V76.2783C56.818 77.5641 57.0859 78.5288 57.58 79.2006C58.0416 79.8283 58.8537 80.1955 60.1308 80.1955C61.3511 80.1955 62.1428 79.854 62.6037 79.2566C63.0926 78.6228 63.3802 77.6584 63.3802 76.3137V75.9387H63.7552H69.3305H69.7131L69.7054 76.3213C69.646 79.2525 68.8092 81.5523 67.146 83.1629C65.483 84.7733 63.1344 85.5497 60.1578 85.5444C57.0665 85.5442 54.6429 84.7169 52.948 83.0082C51.2522 81.2988 50.4347 78.8311 50.4374 75.6689M62.0982 59.504L50.8124 75.669M62.0982 59.504H62.4732V61.9928M62.0982 59.504L62.4732 61.9928M62.0982 59.504V61.9928M62.0982 59.504L62.4732 61.9928M50.4374 75.6689C50.4374 75.6688 50.4374 75.6688 50.4374 75.6687L50.8124 75.669M50.4374 75.6689V75.669H50.8124M50.4374 75.6689V70.005V69.63H50.8124C53.8698 69.63 56.1111 69.5526 57.5464 69.4003M50.8124 75.669V70.38V70.005C53.8724 70.005 56.1304 69.9277 57.5865 69.7731M57.5464 69.4003C57.5464 69.4003 57.5464 69.4003 57.5464 69.4003L57.5865 69.7731M57.5464 69.4003C57.5466 69.4002 57.5468 69.4002 57.5469 69.4002L57.5865 69.7731M57.5464 69.4003C58.9742 69.2465 59.9812 68.9246 60.6214 68.471M57.5865 69.7731C59.0466 69.6159 60.1308 69.2818 60.847 68.7708M60.847 68.7708L60.6139 68.477C60.6164 68.475 60.6189 68.473 60.6214 68.471M60.847 68.7708C61.5196 68.2373 61.9899 67.4979 62.1888 66.6735H61.8018M60.847 68.7708L60.6292 68.4655C60.6266 68.4674 60.624 68.4692 60.6214 68.471M60.6214 68.471C61.2005 68.0092 61.6119 67.3781 61.8018 66.6735M61.8018 66.6735C61.8349 66.5505 61.8613 66.4254 61.8807 66.2985H49.8183H49.4433V65.9235V62.7428V62.3678H49.8183H62.0982V61.9928M61.8018 66.6735H49.4433H49.0683V66.2985V62.3678V61.9928H49.4433H62.0982M62.0982 61.9928H62.4732" stroke="white" stroke-opacity="0.75" stroke-width="0.75"/>
<path d="M60.8303 104.536C56.2601 104.527 51.7367 103.62 47.5207 101.867C43.3046 100.115 39.479 97.5513 36.2641 94.3244C33.0492 91.0976 30.5084 87.271 28.788 83.065C27.0676 78.8589 26.2015 74.3564 26.2396 69.8166C26.3583 50.816 41.9443 35.4551 60.9966 35.5652C65.5783 35.5675 70.1142 36.4717 74.3423 38.2252C78.5703 39.9788 82.4067 42.5471 85.6299 45.7818C88.8531 49.0166 91.3992 52.8536 93.1212 57.0713C94.8432 61.2891 95.7069 65.8039 95.6625 70.3551C95.5161 89.34 79.8865 104.673 60.8303 104.536ZM61.0282 41.8227C57.2628 41.8142 53.5332 42.5488 50.056 43.984C46.5788 45.4192 43.4233 47.5264 40.7728 50.1832C38.1222 52.8399 36.0294 55.9933 34.6159 59.4602C33.2025 62.9271 32.4964 66.6385 32.5389 70.3787C32.5943 85.7395 45.4699 98.3136 61.1034 98.2861C76.6261 98.2546 89.4146 85.5036 89.379 70.0878C89.3434 54.4832 76.5865 41.7677 61.0282 41.8227Z" fill="white" fill-opacity="0.75"/>
<path d="M61.0273 42.1977L61.0295 42.1977C76.3796 42.1434 88.9689 54.6904 89.004 70.0886C89.0391 85.2948 76.4207 97.88 61.1026 97.9111C45.6696 97.9382 32.9685 85.525 32.9139 70.3773L32.9139 70.3744C32.872 66.6842 33.5685 63.0225 34.9632 59.6018C36.3578 56.1811 38.4228 53.0696 41.0382 50.448C43.6537 47.8264 46.7676 45.747 50.1991 44.3307C53.6306 42.9143 57.3113 42.1893 61.0273 42.1977ZM47.3767 102.213C51.6379 103.985 56.2094 104.901 60.8283 104.911L60.8303 104.536C79.8865 104.673 95.5161 89.34 95.6625 70.3551L96.0375 70.3587C96.0375 70.3585 96.0375 70.3582 96.0375 70.358C96.0823 65.7572 95.2091 61.1932 93.4684 56.9296C91.7276 52.6658 89.1537 48.787 85.8955 45.5172C82.6374 42.2473 78.7595 39.6513 74.4859 37.8789C70.2127 36.1065 65.6284 35.1927 60.9977 35.1902C41.74 35.0795 25.9848 50.6058 25.8646 69.8138C25.8262 74.4033 26.7017 78.955 28.4409 83.207C30.1801 87.459 32.7486 91.3272 35.9984 94.5891C39.2482 97.851 43.1152 100.442 47.3767 102.213Z" stroke="white" stroke-opacity="0.75" stroke-width="0.75"/>
<path d="M60.7246 122.959C59.2013 121.504 57.6462 120.077 56.1584 118.588C54.5757 117.015 54.5084 115.093 55.8696 113.788C57.2307 112.483 59.0825 112.645 60.5901 114.138C63.7556 117.283 66.921 120.45 70.0865 123.639C71.6693 125.234 71.6693 126.936 70.0588 128.532C66.9224 131.656 63.7714 134.765 60.6059 137.86C58.9955 139.432 57.112 139.495 55.7746 138.091C54.5084 136.763 54.6548 134.947 56.1703 133.402C57.3138 132.251 58.4732 131.115 59.6207 129.971C59.6444 129.947 59.6207 129.876 59.6207 129.668C56.9696 129.464 54.2868 129.322 51.6278 128.925C26.8224 125.207 6.39311 105.711 2.08015 81.0778C-1.8767 58.5672 5.07944 39.6805 22.2601 24.5044C22.5212 24.2765 22.7903 24.0603 23.0514 23.8481C24.8162 22.4645 26.6799 22.5352 27.8828 24.021C29.0857 25.5067 28.7731 27.2598 27.0914 28.6513C24.5504 30.751 22.1856 33.0528 20.0205 35.5338C0.556797 57.8479 3.88055 93.1409 27.1429 111.461C36.5127 118.839 47.121 122.86 59.0786 123.308C59.5574 123.328 60.0361 123.308 60.5149 123.308L60.7246 122.959Z" fill="white" fill-opacity="0.75"/>
<path d="M60.8544 113.872L60.854 113.872C60.0519 113.077 59.1328 112.612 58.204 112.54C57.2685 112.467 56.3621 112.797 55.6101 113.518C54.8567 114.24 54.4848 115.15 54.5356 116.108C54.586 117.059 55.0513 118.016 55.894 118.854C56.9208 119.882 57.9823 120.883 59.0387 121.879C59.4128 122.231 59.7862 122.584 60.1572 122.936C60.1102 122.937 60.0635 122.937 60.017 122.938C59.7045 122.942 59.4034 122.946 59.094 122.934L59.0926 122.934C47.2168 122.489 36.6843 118.497 27.3749 111.167C4.28082 92.9788 0.980601 57.9325 20.3031 35.7803C22.4548 33.3147 24.8049 31.0271 27.3303 28.9403L27.3305 28.9402C28.2197 28.2044 28.7811 27.3446 28.9383 26.4354C29.097 25.5176 28.8347 24.6008 28.1742 23.785C27.5109 22.9657 26.6463 22.5185 25.6915 22.4838C24.7447 22.4493 23.7532 22.8213 22.8201 23.5529L22.82 23.5529L22.8149 23.557C22.7835 23.5826 22.7518 23.6083 22.7199 23.6342C22.4895 23.8212 22.2484 24.0169 22.0135 24.2219L22.0118 24.2234C4.73708 39.4826 -2.26948 58.4988 1.71081 81.1428C6.05243 105.939 26.6115 125.554 51.5723 129.296L51.5725 129.296C53.7095 129.615 55.8642 129.771 57.9892 129.924C58.3464 129.95 58.7028 129.975 59.0581 130.002C58.7169 130.341 58.3743 130.68 58.0313 131.02C57.3209 131.723 56.6087 132.428 55.9042 133.138L55.9026 133.14C55.0993 133.958 54.6323 134.876 54.5556 135.797C54.4783 136.724 54.8016 137.614 55.5032 138.35C56.2382 139.121 57.1452 139.508 58.1043 139.466C59.057 139.424 60.0136 138.962 60.8679 138.128L60.8681 138.128C64.0341 135.032 67.1857 131.923 70.3228 128.799C71.1734 127.956 71.6411 127.042 71.6451 126.087C71.6491 125.132 71.1891 124.218 70.3528 123.375L70.3527 123.374C67.1866 120.185 64.0205 117.017 60.8544 113.872Z" stroke="white" stroke-opacity="0.75" stroke-width="0.75"/>
<path d="M61.1792 17.1028C62.6908 18.5492 64.2221 19.976 65.7059 21.4539C67.2886 23.0262 67.4073 24.9482 66.1016 26.2611C64.7958 27.5739 62.8451 27.4403 61.2742 25.8995C58.1325 22.7838 55.0052 19.6537 51.8925 16.5092C50.2465 14.8466 50.2623 13.1722 51.9281 11.5095C55.0619 8.38859 58.2116 5.28077 61.3771 2.18606C62.9242 0.680635 64.7562 0.613804 66.0976 1.95414C67.439 3.29449 67.2847 5.13009 65.8088 6.65124C65.2271 7.24869 64.6217 7.83044 64.0242 8.40824C63.4267 8.98604 62.8055 9.53236 61.9271 10.3421C64.1548 10.5347 66.0422 10.5976 67.8901 10.8806C93.9143 14.8112 111.107 29.2562 118.72 54.2589C125.526 76.6202 117.264 101.564 98.9355 116.221C97.1787 117.62 95.315 117.589 94.0844 116.135C92.8538 114.68 93.1427 112.833 94.9905 111.308C105.247 102.83 111.518 92.0479 113.896 79.0257C117.96 56.8374 106.616 33.8236 86.3646 23.0694C78.5617 18.9462 70.2602 16.804 61.1792 17.1028Z" fill="white" fill-opacity="0.75"/>
<path d="M65.9705 21.1882C64.9072 20.1292 63.818 19.0947 62.7328 18.0642C62.5192 17.8613 62.3058 17.6586 62.0928 17.4559C70.7518 17.3254 78.6977 19.4423 86.1887 23.4006C106.299 34.0801 117.561 56.9347 113.528 78.9582L113.527 78.9584C111.165 91.8943 104.939 102.597 94.7516 111.019C93.7808 111.82 93.1833 112.736 93.0139 113.682C92.8428 114.637 93.1184 115.574 93.7981 116.377C94.4773 117.18 95.3499 117.606 96.306 117.623C97.2538 117.64 98.2413 117.253 99.1691 116.514L99.1697 116.514C117.612 101.765 125.931 76.6646 119.078 54.1497C115.254 41.5907 109.018 31.6634 100.452 24.382C91.887 17.1012 81.0144 12.4837 67.9466 10.5099C66.677 10.3155 65.3797 10.223 63.9857 10.1236C63.6031 10.0963 63.2132 10.0685 62.8146 10.0379C62.8863 9.97257 62.9565 9.90877 63.0251 9.84631C63.4951 9.41869 63.8965 9.05346 64.2849 8.6778C64.3373 8.62715 64.3898 8.57642 64.4424 8.5256C64.9879 7.99834 65.5425 7.46231 66.0775 6.91283L66.0779 6.91237C66.8621 6.10417 67.3211 5.18541 67.3838 4.26027C67.4471 3.32721 67.1039 2.42948 66.3627 1.68888C65.6261 0.95282 64.7333 0.585663 63.7974 0.62833C62.8669 0.670756 61.9392 1.11589 61.1156 1.9173L61.1149 1.91792C57.9486 5.01343 54.7981 8.12206 51.6635 11.2438L51.6632 11.2441C50.7894 12.1162 50.3008 13.0392 50.2934 14.0065C50.2859 14.9747 50.7611 15.8995 51.626 16.7731C54.7396 19.9184 57.8676 23.0493 61.0101 26.1658L61.0116 26.1672C61.8474 26.987 62.8075 27.4548 63.76 27.5244C64.7186 27.5944 65.6391 27.2578 66.3675 26.5255C67.0935 25.7955 67.4338 24.8812 67.3608 23.9262C67.2883 22.9774 66.8114 22.0237 65.9705 21.1882ZM65.9705 21.1882L65.7059 21.4539M65.9705 21.1882C65.9704 21.1881 65.9703 21.188 65.9702 21.1879L65.7059 21.4539M65.7059 21.4539C67.2886 23.0262 67.4073 24.9482 66.1016 26.2611C64.7958 27.5739 62.8451 27.4403 61.2742 25.8995L61.5604 17.4668C61.8658 17.7579 62.1718 18.0486 62.4779 18.3392C63.5618 19.3686 64.646 20.3982 65.7059 21.4539Z" stroke="white" stroke-opacity="0.75" stroke-width="0.75"/>
</svg>
