<svg width="117" height="143" viewBox="0 0 117 143" fill="none" xmlns="http://www.w3.org/2000/svg">
<path d="M15.3207 95.85C13.7851 94.2798 12.4302 92.914 11.086 91.5104C7.77629 88.0372 6.62367 83.8944 8.04006 79.2105C9.45645 74.5266 12.6542 71.9463 17.2032 71.0118C17.2285 70.5313 16.8022 70.3459 16.542 70.0735C14.7354 68.1553 12.9071 66.2901 11.1005 64.3606C4.89653 57.8002 6.88743 47.8195 15.075 44.4258C15.2008 44.3613 15.3217 44.2867 15.4364 44.2025C15.3424 43.688 14.9161 43.4648 14.6198 43.1507C10.974 39.2992 7.2054 35.5839 3.67526 31.5962C2.34167 30.1129 1.39792 28.2931 0.936034 26.3141C0.474144 24.3352 0.509862 22.2647 1.03973 20.3045C1.5696 18.3444 2.57552 16.5614 3.95941 15.1295C5.34331 13.6977 7.05795 12.6657 8.93614 12.1343C13.2106 10.8744 16.9214 12.1343 20.1372 15.2405C20.5419 14.9984 20.3215 14.5784 20.3287 14.253C20.354 12.5543 20.4443 10.848 20.3287 9.15677C19.9457 3.90917 23.6457 0.488962 28.444 0.549497C42.2755 0.723534 56.1107 0.610044 69.9422 0.610044C77.1976 0.610044 84.453 0.610044 91.7084 0.610044C96.3658 0.610044 99.2962 3.67461 99.2962 8.55522C99.2962 22.236 99.2962 35.9181 99.2962 49.6015V51.3948C101.71 49.0535 104.668 47.414 107.874 46.6391C109.8 46.1415 111.777 45.8962 113.76 45.9089C115.447 45.9316 116.517 47.0439 116.596 48.8221C116.596 49.2004 116.596 49.5788 116.596 49.9571V138.137C116.619 138.655 116.607 139.173 116.56 139.688C116.476 140.374 116.153 141.003 115.654 141.456C115.155 141.909 114.515 142.154 113.854 142.145C113.194 142.136 112.56 141.873 112.073 141.406C111.586 140.939 111.28 140.301 111.213 139.613C111.177 139.095 111.169 138.576 111.187 138.058C111.187 109.808 111.198 81.5474 111.22 53.2752C111.22 51.8526 110.859 51.7013 109.648 51.9964C103.144 53.5892 99.466 58.2466 99.3468 65.6167C99.2203 73.2554 99.2673 80.9017 99.3178 88.5442C99.3647 89.2908 99.2223 90.037 98.905 90.7074C98.5878 91.3778 98.1069 91.9485 97.5112 92.3617C94.4111 94.7112 91.3687 97.1628 88.3083 99.5501C84.0627 102.842 81.9743 107.234 81.9923 112.769C82.0176 121.358 81.9923 129.942 81.9923 138.531C81.9923 141.224 81.0854 142.159 78.4767 142.159H27.9201C23.2626 142.159 20.3648 139.094 20.3323 134.214C20.3323 132.28 20.8093 130.128 20.1516 128.474C19.494 126.821 17.7019 125.663 16.3975 124.313C14.0417 121.842 11.7003 119.334 9.31553 116.916C5.87572 113.454 4.43042 109.349 5.76732 104.487C7.10422 99.6258 10.4067 96.8828 15.3207 95.85ZM31.4936 52.0305C35.0852 39.0382 45.2854 30.2796 57.4584 29.5267C61.6264 29.2541 65.8009 29.939 69.6895 31.5334C73.5781 33.1277 77.0869 35.5929 79.97 38.7564C82.8531 41.9198 85.0409 45.7049 86.3802 49.8468C87.7194 53.9886 88.1777 58.3869 87.7229 62.7337C85.8802 80.9698 68.7679 93.2394 51.8687 88.4609C46.4426 86.9505 41.5608 83.8019 37.8313 79.4072C37.5458 79.0743 37.3507 78.363 36.6822 78.7792C35.4321 79.5624 34.0337 79.9142 32.4295 80.3531C34.7961 82.801 37.0616 85.0294 39.2115 87.3751C40.2974 88.5436 41.1415 89.9339 41.6911 91.4594C42.2407 92.9849 42.4839 94.6126 42.4056 96.241C42.3272 97.8693 41.929 99.4632 41.2358 100.923C40.5427 102.383 39.5694 103.678 38.3769 104.726C36.7148 106.198 34.7636 107.026 32.256 107.529C34.1457 109.421 35.891 110.995 37.4194 112.777C37.7009 113.15 38.0646 113.446 38.4793 113.64C38.894 113.833 39.3473 113.919 39.8005 113.889C51.5098 113.857 63.2227 113.857 74.9393 113.889C76.2328 113.889 76.6267 113.662 76.6339 112.183C76.6664 105.373 79.2932 99.7772 84.424 95.5359C87.2568 93.2092 90.1583 90.9958 93.0597 88.7258C93.3386 88.5444 93.565 88.2869 93.7146 87.9809C93.8642 87.675 93.9313 87.3321 93.9088 86.9892C93.8871 65.7642 93.8871 44.5393 93.9088 23.3143C93.9088 22.3533 93.7354 22.0582 92.7562 22.062C70.8166 22.0923 48.877 22.0923 26.9373 22.062C26.2147 22.062 25.7161 21.9636 25.7233 23.0986C25.7847 30.5028 25.7558 37.907 25.7558 45.3111C25.7558 45.7273 25.698 46.1321 26.0557 46.4877C27.8406 48.3114 29.5967 50.1085 31.4936 52.0305ZM59.3445 35.1375C54.1048 35.1381 49.0168 36.9799 44.8955 40.368C40.7741 43.756 37.8578 48.4942 36.6136 53.8238C36.1114 55.9614 36.2125 57.6488 38.0589 58.973C38.5577 59.3806 39.0056 59.8522 39.3922 60.3766C42.5682 64.2357 43.2728 68.5564 41.4048 73.2403C41.0434 74.1596 41.0796 74.7158 41.7083 75.4309C47.5401 82.0859 54.7376 84.8894 63.2324 83.4555C75.1163 81.4389 83.5677 69.873 82.491 57.4256C81.9915 51.3535 79.3382 45.6974 75.0539 41.572C70.7696 37.4466 65.165 35.151 59.3445 35.1375ZM59.7926 16.455C70.7335 16.455 81.6744 16.455 92.6189 16.4815C93.7029 16.4815 93.9558 16.1599 93.9161 15.0854C93.8366 12.9705 93.8944 10.8442 93.8908 8.72169C93.8908 6.79215 93.4066 6.27759 91.6036 6.27381H28.1116C26.2111 6.27381 25.763 6.76188 25.7594 8.79357C25.7558 10.8253 25.8281 12.9553 25.7305 15.0173C25.6763 16.1523 25.9473 16.4928 27.0999 16.4852C37.9975 16.4323 48.895 16.455 59.7926 16.455ZM25.7594 132.031C25.7594 132.821 25.7594 133.48 25.7594 134.134C25.7594 135.973 26.258 136.507 27.9816 136.507C43.8244 136.507 59.6697 136.515 75.5174 136.533C76.4243 136.533 76.6014 136.261 76.6014 135.364C76.558 130.51 76.5436 125.652 76.6014 120.798C76.6014 119.712 76.3196 119.508 75.3368 119.511C64.0393 119.549 52.7407 119.549 41.4409 119.511C40.4436 119.511 40.1148 119.723 40.1979 120.813C40.2239 121.661 40.1214 122.507 39.8944 123.321C38.3443 129.893 32.5957 133.457 25.7594 132.031ZM16.6685 101.518C14.1681 101.62 12.3001 102.785 11.2811 105.146C10.2622 107.507 10.4898 109.947 12.2495 111.85C16.4119 116.356 20.6756 120.764 24.95 125.152C25.534 125.785 26.2548 126.262 27.0516 126.542C27.8484 126.822 28.6977 126.897 29.528 126.76C30.6548 126.623 31.7212 126.154 32.6027 125.406C33.4843 124.658 34.1448 123.664 34.5071 122.538C35.3743 120.113 34.76 117.949 33.0979 116.174C29.0005 111.797 24.8417 107.473 20.69 103.163C19.5808 101.99 18.1716 101.548 16.6685 101.499V101.518ZM18.7858 49.4313C16.2999 49.5296 14.403 50.729 13.3985 53.1617C12.394 55.5944 12.7553 58.0234 14.5656 59.9718C18.5931 64.2875 22.6665 68.5564 26.7856 72.7787C29.3654 75.4271 32.8052 75.3817 35.2261 72.8543C37.647 70.327 37.7048 66.7177 35.19 64.0163C31.1648 59.6918 27.053 55.462 22.9736 51.1981C21.8571 50.048 20.352 49.4062 18.7858 49.4123V49.4313ZM19.0063 76.6151C17.8522 76.5718 16.7114 76.8844 15.7254 77.5139C14.7394 78.1435 13.9517 79.0623 13.4599 80.1564C12.9188 81.3092 12.7395 82.6117 12.9478 83.8776C13.1562 85.1435 13.7413 86.3081 14.6198 87.2049C18.6305 91.4751 22.6737 95.71 26.7494 99.9095C29.3329 102.558 32.7474 102.558 35.1936 100.053C37.6398 97.5487 37.7012 93.8523 35.1322 91.1093C31.1287 86.8341 27.0566 82.6307 23.0097 78.3971C21.9457 77.2806 20.5121 76.6358 19.0063 76.5962V76.6151ZM20.3504 41.1418C20.3504 36.9422 20.3504 33.049 20.3504 29.1521C20.3504 27.2604 20.8165 25.1568 20.1481 23.5754C19.4254 21.8842 17.6621 20.6697 16.3036 19.2963C13.7418 16.7085 10.1827 16.7047 7.73654 19.2434C5.40238 21.6648 5.43852 25.486 7.89914 28.0928C11.946 32.3643 16.0362 36.6092 20.3504 41.1228V41.1418Z" fill="white" fill-opacity="0.75"/>
<path d="M59.9082 130.827C57.7402 130.827 55.5903 130.827 53.4332 130.827C51.6049 130.827 50.38 129.692 50.3728 128.013C50.3656 126.333 51.5977 125.183 53.4188 125.175C57.7787 125.16 62.1387 125.16 66.4987 125.175C68.3415 125.175 69.5447 126.31 69.5483 127.997C69.5519 129.685 68.3559 130.816 66.5168 130.827C64.3235 130.843 62.1195 130.827 59.9082 130.827Z" fill="white" fill-opacity="0.75"/>
<path d="M65.8955 51.1411V54.0279H69.5594V57.52H65.6896C65.3017 59.9263 64.3527 61.6729 62.8423 62.76C61.332 63.8471 59.0544 64.3919 56.0097 64.3945V66.4035C55.9625 67.3967 56.2154 68.3803 56.7323 69.2145C57.2057 69.8993 58.0078 70.2399 59.146 70.2399C60.2842 70.2399 61.0176 69.9182 61.5018 69.2713C61.986 68.6243 62.2244 67.6823 62.2244 66.4413H66.9217C66.8711 68.9989 66.1822 70.9549 64.8549 72.3094C63.5276 73.6638 61.6307 74.3411 59.164 74.3411C56.5986 74.3411 54.6403 73.6197 53.2889 72.177C51.9375 70.7342 51.2534 68.6332 51.2366 65.8738V60.8229C53.8237 60.8229 55.7327 60.7535 56.9636 60.6148C58.1993 60.4748 59.1315 60.1797 59.7205 59.7219C60.3765 59.1779 60.8052 58.3885 60.9165 57.52H50.0767V54.0279H61.0971V51.1411H50.0767V47.4221H69.5485V51.1411H65.8955Z" fill="white" fill-opacity="0.75"/>
</svg>
