<svg width="181" height="180" viewBox="0 0 181 180" fill="none" xmlns="http://www.w3.org/2000/svg">
<path d="M34.4628 104.759C30.5065 104.759 26.5553 104.724 22.5991 104.759C21.4766 104.759 20.9833 104.629 20.9934 103.294C21.0286 98.7493 20.9632 98.7493 25.5234 98.7493C32.4897 98.7493 39.461 98.7193 46.4272 98.7493C47.7208 98.7493 48.2594 98.6093 48.2242 97.0893C48.1134 92.7443 48.2242 92.7393 43.8904 92.7393C43.6991 92.7393 43.5129 92.7393 43.3216 92.7393C41.9676 92.6343 39.7982 93.3143 39.4207 92.4743C38.7614 91.0243 39.169 89.0892 39.1439 87.3542C39.1439 86.5192 39.7932 86.7643 40.2311 86.7593C42.3653 86.7593 44.4994 86.6893 46.6336 86.7593C47.8013 86.8093 48.2241 86.5593 48.2141 85.2593C48.1788 80.7592 48.2141 80.7592 43.684 80.7592C39.914 80.7592 36.1339 80.7592 32.384 80.7592C31.6483 80.722 30.9267 80.9693 30.3706 81.4492C26.4513 84.7526 22.4984 88.0226 18.5119 91.2593C17.6814 91.9343 17.4448 92.5043 17.7368 93.5843C18.2255 95.4022 18.112 97.3281 17.413 99.0769C16.7141 100.826 15.4669 102.304 13.8561 103.294C12.6612 104.05 11.3039 104.515 9.89421 104.653C8.48453 104.79 7.06214 104.595 5.74233 104.084C4.42252 103.574 3.24245 102.761 2.29778 101.713C1.3531 100.664 0.670409 99.4094 0.305059 98.05C-0.060291 96.6906 -0.0980505 95.2648 0.194892 93.8882C0.487834 92.5115 1.1032 91.2228 1.99111 90.1265C2.87903 89.0303 4.01456 88.1573 5.30553 87.5783C6.5965 86.9993 8.0066 86.7307 9.42159 86.7942C9.86003 86.7604 10.3005 86.8253 10.7102 86.9842C12.8645 88.2042 14.3091 87.0992 15.8946 85.7242C19.866 82.2892 23.9481 79.0092 27.9748 75.6242C28.6267 75.0481 29.4788 74.7468 30.3505 74.7841C35.8118 74.8191 41.273 74.7842 46.7342 74.8242C47.8365 74.8242 48.2442 74.6442 48.2442 73.4291C48.2442 68.8191 48.2946 68.8241 43.6135 68.8141C40.7294 68.8141 37.5231 69.5541 35.0568 68.5441C32.5904 67.5341 30.8538 64.7541 28.8002 62.7491C28.3522 62.3091 27.8741 61.8991 27.4714 61.4241C26.0973 59.789 24.8289 58.8741 22.2769 59.6391C18.7082 60.7041 14.7268 58.269 13.0054 54.799C12.1518 53.0673 11.883 51.1083 12.2389 49.2128C12.5948 47.3173 13.5564 45.5863 14.981 44.2766C16.4056 42.967 18.2173 42.1486 20.1473 41.9427C22.0772 41.7369 24.0226 42.1546 25.6946 43.1339C29.0217 45.079 30.8941 49.134 29.8321 52.734C29.3589 54.349 29.681 55.309 30.879 56.384C32.8924 58.1791 34.7346 60.139 36.6221 62.0491C36.8392 62.3073 37.1122 62.5134 37.4208 62.6519C37.7293 62.7904 38.0655 62.8578 38.404 62.8491C41.2932 62.799 44.1806 62.799 47.0664 62.8491C47.9322 62.8491 48.1738 62.6541 48.2795 61.7441C49.1453 53.964 54.3699 48.744 62.1566 47.929C63.0324 47.834 63.3042 47.659 63.2992 46.754C63.2556 40.8939 63.2556 35.0339 63.2992 29.1738C63.3005 28.8074 63.2194 28.4453 63.0618 28.1139C62.9041 27.7826 62.674 27.4904 62.3882 27.2588C59.3128 24.2288 56.2172 21.2188 53.2122 18.1237C52.3817 17.2687 51.7022 17.2137 50.615 17.5387C48.7979 18.0752 46.8553 18.0167 45.0742 17.3721C43.2931 16.7274 41.7681 15.5307 40.7244 13.9587C39.9316 12.7845 39.4296 11.4407 39.2594 10.0371C39.0893 8.63341 39.2557 7.20963 39.7452 5.88205C40.2346 4.55446 41.0332 3.36068 42.0757 2.3982C43.1182 1.43571 44.3751 0.731809 45.7438 0.343952C47.1124 -0.0439055 48.554 -0.104716 49.9508 0.166491C51.3476 0.437698 52.6601 1.03325 53.781 1.90448C54.9019 2.77571 55.7994 3.89794 56.4004 5.17953C57.0014 6.46112 57.2887 7.86573 57.2389 9.27868C57.2751 9.52641 57.2562 9.77898 57.1836 10.0187C55.8648 12.4787 57.3246 13.9137 58.9906 15.4737C62.0962 18.3787 65.0307 21.4738 68.091 24.4188C68.505 24.7788 68.8318 25.227 69.0471 25.73C69.2624 26.233 69.3605 26.7778 69.3342 27.3238C69.2688 33.6188 69.3342 39.9189 69.2789 46.2139C69.2789 47.4389 69.445 47.9239 70.8543 47.9039C75.329 47.8389 75.329 47.904 75.329 43.5139C75.329 38.7439 75.329 38.7889 80.0906 38.8539C81.2282 38.8539 81.4094 39.2639 81.3792 40.2489C81.3138 42.3689 81.3792 44.4889 81.3389 46.6089C81.3389 47.5189 81.4949 47.8739 82.5469 47.8989C87.384 48.0089 87.384 48.054 87.384 43.3089C87.384 38.1339 87.384 32.9589 87.384 27.8088C87.4435 27.3924 87.3595 26.9681 87.1457 26.605C86.9319 26.242 86.6008 25.9614 86.2062 25.8088C84.391 24.9152 82.9434 23.4247 82.1093 21.5907C81.2752 19.7568 81.1062 17.6925 81.6309 15.7487C82.1131 13.8184 83.2289 12.1025 84.802 10.8722C86.3752 9.64187 88.3161 8.96713 90.3183 8.95452C92.3204 8.94191 94.2698 9.59212 95.8585 10.8025C97.4473 12.0129 98.5849 13.7146 99.0917 15.6387C99.6401 17.5764 99.4959 19.6429 98.6839 21.4869C97.8718 23.331 96.4418 24.8387 94.6372 25.7538C94.2186 25.9153 93.8664 26.2112 93.6366 26.5945C93.4067 26.9777 93.3124 27.4263 93.3687 27.8688C93.414 34.0439 93.4291 40.2139 93.3687 46.3689C93.3687 47.624 93.7311 47.869 94.9291 47.869C99.4239 47.869 99.4239 47.869 99.4239 43.5089C99.4239 38.5939 99.424 38.6289 104.352 38.8339C105.298 38.8689 105.494 39.1639 105.469 40.0189C105.419 42.1339 105.504 44.2589 105.434 46.374C105.394 47.429 105.545 47.874 106.808 47.874C111.479 47.874 111.786 47.909 111.388 43.3089C111.026 39.1289 112.395 36.2389 115.506 33.4788C120.313 29.1988 124.692 24.4438 129.297 19.9388C130.103 19.1538 130.349 18.5487 129.987 17.3887C129.411 15.5608 129.456 13.5955 130.116 11.7956C130.775 9.99575 132.012 8.46127 133.636 7.42866C135.219 6.39657 137.088 5.88512 138.98 5.96673C140.872 6.04835 142.689 6.71888 144.176 7.88341C145.663 9.04793 146.743 10.6475 147.265 12.4556C147.786 14.2638 147.721 16.189 147.08 17.9587C146.419 19.7556 145.201 21.2973 143.6 22.3614C142 23.4255 140.1 23.9568 138.176 23.8788C137.926 23.9119 137.672 23.8897 137.431 23.8138C134.99 22.4288 133.631 24.0188 132.111 25.5638C127.722 30.0238 123.281 34.4288 118.787 38.7789C118.325 39.1814 117.966 39.6874 117.739 40.2551C117.512 40.8229 117.425 41.436 117.484 42.0439C117.579 43.7839 116.98 45.7739 117.66 47.2089C118.339 48.6439 120.615 47.989 122.125 48.549C128.24 50.804 131.688 55.124 132.483 61.5491C132.614 62.5941 132.871 62.9991 133.898 62.8241C133.961 62.8191 134.025 62.8191 134.089 62.8241C137.164 62.8241 140.688 63.7391 143.194 62.5441C146.214 61.124 148.258 57.834 150.83 55.464C151.696 54.664 151.228 54.034 151.021 53.299C150.503 51.4844 150.576 49.5536 151.229 47.7825C151.881 46.0113 153.081 44.4905 154.656 43.4373C156.232 42.3842 158.101 41.8526 159.999 41.9185C161.897 41.9844 163.725 42.6445 165.222 43.8044C166.719 44.9642 167.809 46.5645 168.336 48.3767C168.862 50.1888 168.799 52.1199 168.155 53.8941C167.51 55.6683 166.318 57.1947 164.747 58.2552C163.177 59.3157 161.31 59.8561 159.412 59.799C159.1 59.8442 158.782 59.8185 158.481 59.724C156.115 58.364 154.761 59.8091 153.302 61.3791C151.288 63.5291 149.104 65.4991 147.085 67.6391C146.719 68.0486 146.262 68.3679 145.75 68.5718C145.238 68.7757 144.685 68.8587 144.136 68.8141C140.748 68.7441 137.356 68.8491 133.968 68.7591C132.77 68.7291 132.458 69.0841 132.554 70.2141C132.72 71.6841 131.925 73.7141 132.866 74.4892C133.807 75.2642 135.72 74.7641 137.21 74.7691C141.649 74.7691 141.584 74.7692 141.649 79.1992C141.649 80.5592 141.251 80.8642 139.973 80.7942C137.96 80.6842 135.946 80.7942 133.933 80.7442C132.926 80.7092 132.534 80.8692 132.519 82.0142C132.453 86.7493 132.428 86.4493 137.205 86.8193C143.874 87.3193 149.944 86.0692 155.582 82.4792C157.411 81.3998 159.315 80.4508 161.279 79.6392C161.741 79.4916 162.137 79.191 162.402 78.7877C162.667 78.3845 162.784 77.9031 162.734 77.4242C162.784 72.4741 167.118 68.5841 172.152 68.7941C173.355 68.8297 174.538 69.1039 175.633 69.6004C176.728 70.0969 177.711 70.8058 178.526 71.6854C179.341 72.5649 179.971 73.5975 180.379 74.7223C180.786 75.8471 180.963 77.0415 180.9 78.2353C180.836 79.4291 180.533 80.5982 180.008 81.6739C179.483 82.7496 178.746 83.7101 177.842 84.4991C176.938 85.2881 175.884 85.8897 174.743 86.2684C173.601 86.647 172.395 86.7952 171.195 86.7043C169.488 86.658 167.842 86.0671 166.499 85.0192C165.684 84.3442 165.055 84.3992 164.174 84.8442C159.326 87.2992 154.434 89.6743 149.577 92.1243C148.747 92.5509 147.823 92.7657 146.889 92.7493C142.621 92.7193 138.332 92.7493 134.084 92.7093C132.921 92.7093 132.493 92.9093 132.503 94.2093C132.539 98.7093 132.503 98.7093 137.034 98.7093C140.174 98.7093 143.31 98.7093 146.451 98.7093C147.317 98.7093 147.599 98.8994 147.634 99.8294C147.835 104.719 147.865 104.714 142.918 104.714C139.842 104.714 136.767 104.744 133.691 104.714C132.816 104.714 132.549 104.919 132.514 105.834C132.317 110.714 132.287 110.714 137.24 110.714C144.584 110.714 151.927 110.714 159.271 110.689C159.791 110.648 160.313 110.728 160.796 110.922C161.279 111.117 161.71 111.421 162.055 111.809C163.534 113.419 165.2 114.859 166.675 116.474C167.46 117.334 168.125 117.474 169.257 117.114C171.101 116.553 173.079 116.609 174.888 117.273C176.696 117.937 178.236 119.172 179.269 120.789C180.301 122.366 180.808 124.225 180.717 126.104C180.627 127.983 179.943 129.785 178.764 131.256C177.585 132.728 175.969 133.793 174.147 134.302C172.324 134.81 170.386 134.736 168.608 134.09C166.8 133.428 165.252 132.212 164.187 130.617C163.123 129.022 162.598 127.131 162.689 125.22C162.658 124.971 162.68 124.719 162.754 124.48C164.128 122.139 162.528 120.9 161.128 119.309C159.316 117.254 157.343 116.559 154.615 116.639C147.78 116.834 140.934 116.724 134.094 116.679C132.977 116.679 132.584 116.854 132.438 118.129C132.131 121.613 130.593 124.876 128.097 127.342C125.6 129.807 122.306 131.315 118.798 131.6C117.564 131.725 117.433 132.13 117.444 133.155C117.491 138.205 117.491 143.255 117.444 148.305C117.444 149.305 117.635 149.695 118.752 149.68C123.146 149.615 127.541 149.625 131.935 149.68C132.831 149.68 133.193 149.335 133.596 148.59C135.68 144.675 139.711 142.905 143.864 143.985C145.805 144.48 147.525 145.605 148.75 147.181C149.975 148.757 150.636 150.693 150.628 152.684C150.62 154.676 149.943 156.607 148.705 158.173C147.467 159.739 145.739 160.85 143.793 161.33C141.84 161.856 139.763 161.696 137.915 160.876C136.066 160.056 134.56 158.627 133.651 156.83C133.502 156.44 133.225 156.111 132.866 155.896C132.506 155.682 132.084 155.593 131.668 155.645C125.457 155.69 119.24 155.62 113.044 155.7C111.7 155.7 111.413 155.35 111.424 154.06C111.494 147.14 111.424 140.22 111.494 133.3C111.494 131.96 111.132 131.67 109.838 131.69C105.434 131.75 105.434 131.69 105.434 136.145C105.434 140.885 105.434 140.845 100.597 140.735C99.5598 140.735 99.3585 140.375 99.3837 139.45C99.4441 137.335 99.3837 135.21 99.4239 133.095C99.4541 132.095 99.293 131.705 98.1404 131.69C93.3788 131.625 93.3788 131.58 93.3788 136.35C93.3788 141.71 93.4241 147.075 93.3486 152.435C93.2909 152.913 93.382 153.398 93.6096 153.823C93.8373 154.249 94.1906 154.595 94.622 154.815C98.9541 157.441 103.259 160.108 107.538 162.815C108.393 163.36 108.992 163.53 110.014 162.925C111.774 161.864 113.848 161.438 115.887 161.719C117.926 161.999 119.805 162.969 121.209 164.465C122.607 165.918 123.483 167.79 123.7 169.789C123.916 171.788 123.461 173.802 122.406 175.518C121.35 177.233 119.753 178.554 117.863 179.274C115.973 179.995 113.897 180.074 111.957 179.5C109.982 178.929 108.264 177.704 107.087 176.029C105.91 174.353 105.346 172.328 105.489 170.29C105.58 168.92 105.107 168.29 104.055 167.66C98.8803 164.5 93.7513 161.26 88.5719 158.105C88.1648 157.906 87.8277 157.589 87.6049 157.197C87.3822 156.804 87.2841 156.354 87.3236 155.905C87.3739 148.405 87.3236 140.945 87.379 133.465C87.379 132.18 87.2431 131.64 85.7079 131.675C81.3288 131.785 81.3289 131.675 81.3289 135.98C81.3289 140.095 81.2987 144.21 81.3289 148.325C81.3289 149.325 81.1627 149.7 80.0302 149.715C75.2787 149.775 75.2787 149.82 75.2787 145.045C75.2787 141.115 75.2384 137.185 75.2787 133.26C75.2787 132.11 75.0824 131.675 73.7687 131.685C69.2386 131.72 69.2386 131.685 69.2386 136.185C69.2386 141.545 69.1983 146.91 69.2688 152.27C69.2923 152.816 69.1924 153.36 68.9764 153.863C68.7604 154.366 68.4337 154.814 68.0205 155.175C64.472 158.615 61.009 162.14 57.4504 165.59C56.6702 166.35 56.3531 166.94 56.7306 168.13C57.3293 170.05 57.2495 172.116 56.5043 173.984C55.7591 175.853 54.3933 177.413 52.6334 178.405C51.3384 179.155 49.8757 179.572 48.3776 179.619C46.8794 179.667 45.393 179.343 44.0524 178.677C42.7119 178.011 41.5594 177.024 40.6992 175.804C39.8389 174.585 39.298 173.172 39.1251 171.693C38.9522 170.214 39.1529 168.715 39.709 167.333C40.2651 165.95 41.1591 164.727 42.3103 163.773C43.4616 162.82 44.8337 162.166 46.303 161.871C47.7722 161.577 49.2922 161.65 50.7257 162.085C51.6972 162.38 52.271 162.33 53.0009 161.585C56.0612 158.455 59.1819 155.385 62.3127 152.325C62.6094 152.06 62.844 151.734 62.9997 151.369C63.1554 151.005 63.2284 150.611 63.2136 150.215C63.1733 144.548 63.1733 138.881 63.2136 133.215C63.2136 132.215 63.1331 131.77 61.8747 131.645C54.4152 130.91 48.9691 125.465 48.209 118.034C48.0983 116.949 47.7762 116.739 46.7796 116.754C43.1387 116.811 39.4996 116.811 35.8621 116.754C35.4662 116.729 35.0715 116.82 34.7276 117.017C34.3837 117.213 34.106 117.507 33.9293 117.859C31.1508 122.079 28.3925 126.3 25.4681 130.435C24.7282 131.49 25.0201 132.095 25.5939 133.005C27.6073 136.21 27.6073 139.505 25.5587 142.69C23.4598 145.94 20.324 147.28 16.4986 146.69C12.8242 146.145 10.3729 143.975 9.23032 140.47C8.79872 139.129 8.69115 137.705 8.91629 136.315C9.14142 134.925 9.69295 133.608 10.5262 132.469C11.3595 131.33 12.4511 130.402 13.7125 129.76C14.974 129.118 16.3698 128.781 17.7871 128.775C18.2935 128.818 18.8017 128.714 19.249 128.474C19.6962 128.234 20.0629 127.869 20.3038 127.425C23.6913 122.265 27.1795 117.169 30.577 112.014C30.8091 111.59 31.162 111.242 31.5917 111.015C32.0214 110.789 32.5088 110.693 32.9931 110.739C37.5231 110.814 42.0532 110.709 46.548 110.804C47.912 110.834 48.1738 110.424 48.1587 109.149C48.0983 104.789 48.1587 104.784 43.8551 104.784L34.4628 104.759ZM54.1786 89.6093C54.1786 98.336 54.1786 107.064 54.1786 115.794C54.1786 122.034 57.8379 125.704 64.0693 125.71H116.603C122.744 125.71 126.489 122.024 126.489 115.979C126.489 98.526 126.489 81.0692 126.489 63.6091C126.489 57.549 122.754 53.884 116.603 53.884H64.0643C57.843 53.884 54.1837 57.559 54.1786 63.7991C54.1753 72.3991 54.1753 81.0025 54.1786 89.6093ZM51.1586 8.95366C51.1533 8.35763 50.9695 7.77667 50.6304 7.28489C50.2914 6.79311 49.8125 6.4128 49.255 6.19248C48.6974 5.97215 48.0865 5.92181 47.5 6.04785C46.9136 6.1739 46.3782 6.47062 45.9622 6.90018C45.5462 7.32974 45.2685 7.87265 45.1644 8.45967C45.0603 9.04669 45.1346 9.65122 45.3779 10.1961C45.6211 10.741 46.0222 11.2015 46.5301 11.519C47.0379 11.8365 47.6294 11.9965 48.2292 11.9787C49.0196 11.9565 49.7697 11.6272 50.3184 11.0616C50.8671 10.4959 51.1706 9.73913 51.1636 8.95366H51.1586ZM138.478 17.9537C139.078 17.9676 139.669 17.8036 140.175 17.4825C140.681 17.1614 141.079 16.6979 141.318 16.1511C141.557 15.6043 141.627 14.999 141.519 14.4125C141.41 13.8261 141.129 13.285 140.709 12.8584C140.29 12.4318 139.752 12.139 139.164 12.0175C138.577 11.896 137.966 11.9511 137.41 12.176C136.854 12.4008 136.378 12.7852 136.043 13.2799C135.708 13.7747 135.529 14.3574 135.529 14.9537C135.526 15.74 135.834 16.4959 136.386 17.0588C136.939 17.6218 137.692 17.9467 138.483 17.9637L138.478 17.9537ZM93.3436 17.9537C93.3435 17.3587 93.1653 16.7771 92.8317 16.2829C92.498 15.7887 92.024 15.4043 91.4698 15.1784C90.9156 14.9526 90.3063 14.8956 89.7194 15.0146C89.1325 15.1337 88.5944 15.4234 88.1737 15.8469C87.753 16.2705 87.4686 16.8088 87.3567 17.3934C87.2447 17.9779 87.3103 18.5823 87.5451 19.1298C87.7799 19.6772 88.1732 20.1429 88.6751 20.4677C89.177 20.7925 89.7648 20.9617 90.3638 20.9538C91.1543 20.9446 91.9097 20.6279 92.4677 20.0717C93.0258 19.5155 93.342 18.764 93.3486 17.9787L93.3436 17.9537ZM24.0386 50.954C24.0576 50.3585 23.8976 49.7708 23.579 49.2659C23.2605 48.7611 22.7978 48.3619 22.25 48.1192C21.7022 47.8766 21.094 47.8014 20.5031 47.9034C19.9121 48.0054 19.3652 48.28 18.9319 48.692C18.4985 49.104 18.1986 49.6348 18.0701 50.2168C17.9417 50.7988 17.9906 51.4057 18.2106 51.9599C18.4307 52.5142 18.812 52.9908 19.3058 53.329C19.7996 53.6672 20.3836 53.8517 20.9834 53.859C21.7716 53.87 22.5329 53.5744 23.1047 53.0354C23.6766 52.4963 24.0135 51.7565 24.0437 50.974L24.0386 50.954ZM162.643 50.844C162.643 50.2472 162.464 49.6642 162.128 49.1693C161.793 48.6743 161.316 48.29 160.76 48.0655C160.203 47.841 159.592 47.7864 159.004 47.9088C158.416 48.0312 157.878 48.325 157.459 48.7526C157.04 49.1802 156.759 49.7222 156.652 50.3093C156.545 50.8964 156.616 51.502 156.857 52.0486C157.098 52.5951 157.498 53.0579 158.005 53.3777C158.512 53.6976 159.104 53.8599 159.704 53.844C160.488 53.8245 161.234 53.5026 161.784 52.9464C162.333 52.3902 162.644 51.6433 162.649 50.864L162.643 50.844ZM168.684 77.6592C168.653 78.2543 168.801 78.845 169.11 79.356C169.418 79.867 169.873 80.2751 170.416 80.5283C170.959 80.7816 171.566 80.8684 172.159 80.7778C172.752 80.6872 173.304 80.4233 173.745 80.0197C174.187 79.6161 174.497 79.0911 174.637 78.5116C174.776 77.9321 174.739 77.3244 174.53 76.766C174.321 76.2075 173.949 75.7236 173.461 75.376C172.974 75.0284 172.394 74.8328 171.794 74.8142C171 74.7884 170.227 75.0747 169.644 75.611C169.061 76.1473 168.714 76.8904 168.679 77.6792L168.684 77.6592ZM9.06928 98.7693C9.66907 98.7558 10.2512 98.5653 10.7415 98.2218C11.2318 97.8783 11.608 97.3976 11.8222 96.8409C12.0363 96.2842 12.0787 95.6767 11.9439 95.096C11.8091 94.5153 11.5032 93.9876 11.0653 93.5802C10.6273 93.1729 10.0772 92.9043 9.485 92.8088C8.89281 92.7133 8.28543 92.7952 7.74027 93.044C7.19511 93.2928 6.73686 93.6973 6.42404 94.2058C6.11121 94.7143 5.95795 95.3039 5.9838 95.8993C6.01784 96.6836 6.36 97.4233 6.93684 97.9599C7.51368 98.4965 8.27923 98.787 9.06928 98.7693ZM174.714 125.64C174.701 125.044 174.51 124.465 174.166 123.978C173.821 123.49 173.338 123.116 172.778 122.902C172.219 122.688 171.607 122.644 171.023 122.777C170.438 122.909 169.906 123.212 169.495 123.646C169.084 124.08 168.812 124.625 168.715 125.213C168.617 125.801 168.697 126.404 168.946 126.946C169.195 127.488 169.601 127.945 170.112 128.257C170.622 128.569 171.215 128.723 171.814 128.7C172.602 128.665 173.345 128.325 173.884 127.753C174.423 127.181 174.715 126.423 174.699 125.64H174.714ZM18.064 134.685C17.465 134.677 16.8772 134.846 16.3753 135.171C15.8734 135.495 15.48 135.961 15.2453 136.509C15.0105 137.056 14.945 137.66 15.0569 138.245C15.1688 138.83 15.4532 139.368 15.8739 139.791C16.2946 140.215 16.8327 140.505 17.4196 140.624C18.0065 140.743 18.6158 140.686 19.1699 140.46C19.7241 140.234 20.1982 139.85 20.5318 139.355C20.8655 138.861 21.0437 138.28 21.0438 137.685C21.0438 136.893 20.7291 136.134 20.1681 135.572C19.6072 135.01 18.8455 134.691 18.0489 134.685H18.064ZM141.649 149.655C141.049 149.638 140.456 149.799 139.949 150.118C139.441 150.438 139.041 150.9 138.799 151.447C138.557 151.993 138.485 152.599 138.592 153.186C138.698 153.774 138.979 154.316 139.398 154.744C139.816 155.172 140.354 155.467 140.942 155.589C141.53 155.712 142.142 155.658 142.699 155.434C143.256 155.209 143.732 154.825 144.068 154.33C144.404 153.835 144.583 153.252 144.584 152.655C144.584 151.871 144.275 151.118 143.724 150.558C143.173 149.997 142.423 149.673 141.634 149.655H141.649ZM48.1285 167.61C47.5285 167.616 46.944 167.8 46.4495 168.137C45.955 168.475 45.573 168.951 45.3522 169.506C45.1313 170.06 45.0817 170.667 45.2096 171.249C45.3375 171.831 45.637 172.363 46.0702 172.775C46.5033 173.188 47.0503 173.463 47.6414 173.565C48.2325 173.668 48.8409 173.593 49.389 173.35C49.9371 173.108 50.4001 172.708 50.7189 172.203C51.0376 171.698 51.1977 171.111 51.1788 170.515C51.1538 169.728 50.8183 168.982 50.2449 168.439C49.6714 167.895 48.9058 167.598 48.1134 167.61H48.1285ZM117.469 170.695C117.489 170.099 117.33 169.511 117.012 169.006C116.694 168.501 116.232 168.101 115.685 167.857C115.137 167.614 114.529 167.538 113.938 167.639C113.347 167.74 112.8 168.013 112.366 168.424C111.932 168.836 111.631 169.366 111.501 169.948C111.372 170.53 111.42 171.136 111.639 171.691C111.858 172.246 112.239 172.723 112.732 173.062C113.225 173.401 113.809 173.587 114.408 173.595C115.197 173.602 115.956 173.302 116.525 172.761C117.094 172.219 117.427 171.477 117.454 170.695H117.469Z" fill="white" fill-opacity="0.75"/>
<path d="M81.2986 30.049C81.2986 32.949 81.2985 32.9491 78.3792 32.9491C75.2685 32.9491 75.2686 32.949 75.2686 29.869C75.2686 26.964 75.2686 26.964 78.1829 26.964C81.2986 26.944 81.2986 26.944 81.2986 30.049Z" fill="white" fill-opacity="0.75"/>
<path d="M99.3741 29.7581C99.3741 26.9431 99.374 26.9431 102.193 26.9431C105.404 26.9431 105.404 26.9431 105.404 30.1182C105.404 32.9282 105.404 32.9282 102.585 32.9282C99.3741 32.9282 99.3741 32.9282 99.3741 29.7581Z" fill="white" fill-opacity="0.75"/>
<path d="M45.275 44.9035C48.1541 44.9035 48.1541 44.9035 48.1541 47.8435C48.1541 50.8886 48.1541 50.8886 45.0032 50.8886C42.1241 50.8886 42.1241 50.8886 42.1241 47.9486C42.1241 44.9036 42.1241 44.9035 45.275 44.9035Z" fill="white" fill-opacity="0.75"/>
<path d="M138.543 47.9936C138.543 50.8886 138.543 50.8886 135.624 50.8886C132.518 50.8886 132.518 50.8886 132.518 47.7936C132.518 44.9035 132.518 44.9035 135.443 44.9035C138.543 44.9035 138.543 44.9035 138.543 47.9936Z" fill="white" fill-opacity="0.75"/>
<path d="M153.613 77.8389C153.613 80.8389 153.613 80.8389 150.593 80.8389C147.573 80.8389 147.573 80.8389 147.573 77.8389C147.573 74.8389 147.573 74.8389 150.593 74.8389C153.613 74.8389 153.613 74.8339 153.613 77.8389Z" fill="white" fill-opacity="0.75"/>
<path d="M29.9634 92.7898C27.0591 92.7898 27.0591 92.7898 27.0591 89.8748C27.0591 86.8048 27.0591 86.8047 30.1848 86.8047C33.084 86.8047 33.0841 86.8047 33.0841 89.7197C33.0841 92.7898 33.0841 92.7898 29.9634 92.7898Z" fill="white" fill-opacity="0.75"/>
<path d="M156.785 104.76C153.614 104.76 153.614 104.76 153.614 101.555C153.614 98.7747 153.614 98.7747 156.468 98.7747C159.639 98.7747 159.639 98.7747 159.639 101.985C159.639 104.76 159.639 104.76 156.785 104.76Z" fill="white" fill-opacity="0.75"/>
<path d="M42.1241 131.515C42.1241 128.705 42.1241 128.705 44.9428 128.705C48.1541 128.705 48.1541 128.705 48.1541 131.88C48.1541 134.69 48.1541 134.69 45.3354 134.69C42.1241 134.69 42.1241 134.69 42.1241 131.515Z" fill="white" fill-opacity="0.75"/>
<path d="M135.408 134.69C132.544 134.69 132.544 134.69 132.544 131.735C132.544 128.78 132.544 128.705 135.518 128.705C138.493 128.705 138.569 128.705 138.569 131.66C138.569 134.615 138.543 134.69 135.408 134.69Z" fill="white" fill-opacity="0.75"/>
<path d="M102.55 152.644C99.374 152.644 99.3741 152.644 99.3741 149.439C99.3741 146.659 99.374 146.659 102.228 146.659C105.404 146.659 105.404 146.659 105.404 149.869C105.404 152.644 105.404 152.644 102.55 152.644Z" fill="white" fill-opacity="0.75"/>
<path d="M78.4195 161.625C75.2686 161.625 75.2686 161.625 75.2686 158.395C75.2686 155.64 75.2685 155.64 77.9564 155.64C81.2986 155.64 81.2986 155.64 81.2986 158.87C81.2986 161.625 81.2986 161.625 78.4195 161.625Z" fill="white" fill-opacity="0.75"/>
<path d="M90.3788 119.725C86.4226 119.725 82.4713 119.75 78.5201 119.725C73.1444 119.68 69.2737 115.855 69.2536 110.525C69.2183 102.735 69.2536 94.9445 69.2536 87.1544C69.2536 83.5544 70.7636 80.7444 73.9799 79.0394C75.0571 78.4643 75.3641 77.8744 75.2937 76.7644C75.0571 72.9343 75.797 69.3393 78.0872 66.1492C79.9229 63.6004 82.5179 61.6884 85.506 60.683C88.4941 59.6775 91.7246 59.6292 94.7418 60.5451C97.7589 61.4609 100.411 63.2946 102.323 65.7874C104.235 68.2803 105.31 71.3066 105.398 74.4393C105.411 74.6258 105.411 74.8129 105.398 74.9993C105.172 77.0594 105.489 78.5644 107.714 79.7444C110.261 81.0994 111.388 83.7844 111.403 86.6994C111.454 94.7995 111.479 102.9 111.403 111C111.358 113.3 110.418 115.495 108.779 117.121C107.14 118.748 104.931 119.681 102.615 119.725H90.3839H90.3788ZM105.404 98.9545C105.404 95.0295 105.404 91.1045 105.404 87.1844C105.404 84.9794 104.251 83.8294 102.046 83.8194C94.2713 83.7961 86.4964 83.7961 78.7214 83.8194C76.4061 83.8194 75.2937 84.9544 75.2887 87.2894C75.2685 94.9561 75.2685 102.623 75.2887 110.29C75.2887 112.61 76.4162 113.745 78.7366 113.75C86.4544 113.776 94.1723 113.776 101.89 113.75C104.321 113.75 105.414 112.625 105.414 110.18C105.419 106.425 105.404 102.69 105.404 98.9545ZM90.1724 77.8244C92.8049 77.8244 95.4424 77.7694 98.0799 77.8244C99.1822 77.8594 99.5094 77.4893 99.3886 76.4643C99.3131 75.8493 99.3886 75.2193 99.3886 74.5943C99.3266 72.2327 98.3324 69.9899 96.6204 68.3501C94.9084 66.7102 92.616 65.8049 90.2379 65.8293C84.5401 65.8893 80.3371 71.2193 81.2885 77.0794C81.4344 77.9944 81.9629 77.7894 82.4713 77.7943C85.0232 77.8344 87.5903 77.8244 90.1724 77.8244Z" fill="white" fill-opacity="0.75"/>
<path d="M87.3238 107.484C87.2784 106.925 87.2784 106.364 87.3238 105.804C87.515 104.629 86.9714 104.109 85.9496 103.579C84.1893 102.658 82.7936 101.173 81.9888 99.3654C81.184 97.5577 81.0171 95.533 81.5152 93.6194C82.01 91.6814 83.1402 89.9623 84.7276 88.7333C86.315 87.5042 88.2691 86.8351 90.2817 86.8317C92.2944 86.8283 94.2508 87.4906 95.8424 88.7142C97.4341 89.9379 98.5703 91.6531 99.0718 93.5893C99.5804 95.4999 99.4229 97.5253 98.625 99.3356C97.8271 101.146 96.4358 102.635 94.6776 103.559C93.6709 104.099 93.1021 104.634 93.3286 105.789C93.3462 105.976 93.3462 106.163 93.3286 106.349C93.3286 110.774 93.3286 110.719 88.9143 110.779C87.6056 110.779 87.0771 110.494 87.2885 109.164C87.3431 108.606 87.3549 108.045 87.3238 107.484ZM93.3638 95.8443C93.3789 95.248 93.2146 94.6608 92.892 94.1577C92.5694 93.6546 92.1032 93.2584 91.5528 93.0198C91.0025 92.7812 90.393 92.711 89.8023 92.8181C89.2116 92.9253 88.6664 93.205 88.2365 93.6214C87.8065 94.0378 87.5113 94.572 87.3885 95.1559C87.2657 95.7398 87.321 96.3468 87.5472 96.8994C87.7734 97.452 88.1602 97.925 88.6584 98.2581C89.1565 98.5912 89.7433 98.7692 90.3438 98.7694C91.1292 98.7657 91.8824 98.4583 92.4434 97.9122C93.0044 97.3661 93.3291 96.6243 93.3487 95.8443H93.3638Z" fill="white" fill-opacity="0.75"/>
</svg>
